<svg width="144" height="144" viewBox="0 0 144 144" fill="none" xmlns="http://www.w3.org/2000/svg">
<path d="M58 28.2964H20.5V106.296H81.5664C81.5243 106.958 81.5 107.624 81.5 108.296C81.5 110.704 81.7747 113.047 82.2939 115.296H20.5C18.1 115.296 16.0002 114.396 14.2002 112.596C12.4002 110.796 11.5 108.696 11.5 106.296V28.2964C11.5 25.8964 12.4002 23.7966 14.2002 21.9966C16.0002 20.1966 18.1 19.2964 20.5 19.2964H58V28.2964Z" fill="white"/>
<path d="M76 70.146L95.0498 51.0962L101.5 57.5464L71.5 87.5464L41.5 57.5464L47.9502 51.0962L67 70.146V19.2964H76V70.146Z" fill="white"/>
<path d="M122.5 19.2964C124.9 19.2964 127 20.1966 128.8 21.9966C130.6 23.7966 131.5 25.8964 131.5 28.2964V83.8013C128.817 81.7169 125.783 80.0628 122.5 78.9448V28.2964H85V19.2964H122.5Z" fill="white"/>
<path d="M105.049 124.703L132.5 97.2521L127.049 91.8008L105.049 113.801L93.9513 102.703L88.5 108.155L105.049 124.703Z" fill="white"/>
</svg>
