<svg xmlns="http://www.w3.org/2000/svg" width="144" height="144" fill="none" viewBox="0 0 144 144"><g clip-path="url(#a)"><path fill="#fff" d="m116.25 104.4-6.6-6.5999q3.6-5.25 5.775-11.775t2.175-13.725q0-18.75-13.425-32.175T72 26.7001q-6.9 0-13.725 2.175T46.5 34.6501l-6.45-6.45q5.4-4.5 12.825-7.05t14.625-3.3v-11.25h9v11.25q20.55 2.1 34.2 15.75t15.75 34.2h11.25v9h-11.25q-.75 7.05-3.15 14.025T116.25 104.4M67.5 138v-11.25q-20.55-2.1-34.2-15.75T17.55 76.8001H6.3v-9h11.25q.9-7.65 3.225-14.325t6.375-12.525L8.1 21.9001l6.45-6.45L128.85 129.75l-6.45 6.45-19.2-19.2q-6 4.35-12.525 6.6T76.5 126.75V138zm4.5-20.1q6.75 0 12.9-1.875t11.7-5.475L33.75 47.7001q-3.45 5.25-5.4 11.325t-1.95 13.275q0 18.75 13.425 32.1749T72 117.9"/></g><defs><clipPath id="a"><path fill="#fff" d="M0 0h144v144H0z"/></clipPath></defs></svg>