<svg xmlns="http://www.w3.org/2000/svg" width="144" height="144" fill="none" viewBox="0 0 144 144"><g clip-path="url(#a)"><mask id="b" width="144" height="144" x="0" y="0" maskUnits="userSpaceOnUse" style="mask-type:alpha"><path fill="#d9d9d9" d="M0 0h144v144H0z"/></mask><g mask="url(#b)"><path stroke="#fff" stroke-width="8" d="M39 56h8c1.6569 0 3 1.3431 3 3v5h44v-5c0-1.6569 1.3431-3 3-3h8c1.657 0 3 1.3431 3 3v5h8c3.314 0 6 2.6863 6 6v51c0 3.314-2.686 6-6 6H28c-3.3137 0-6-2.686-6-6V70c0-3.3137 2.6863-6 6-6h8v-5c0-1.6569 1.3431-3 3-3Z"/></g><path fill="#fff" stroke="#fff" stroke-width="8" d="M44.25 76v40H33V76zm22.25 0v40H55.25V76z"/><path fill="#fff" d="M38.8255 40h-5.9319l9.0384-26.1818h7.1335L58.0911 40h-5.9318L45.601 19.8011h-.2045zm-.3708-10.2912h14.0114v4.321H38.4547zm38.9595-15.8906h5.5356V30.821q0 2.8637-1.3679 5.0114-1.3552 2.1477-3.7969 3.3494-2.4418 1.1889-5.6889 1.1889-3.26 0-5.7017-1.1889-2.4418-1.2017-3.7969-3.3494t-1.3551-5.0114V13.8182h5.5355V30.348q0 1.4957.652 2.6591.6647 1.1634 1.8664 1.8281t2.7998.6648q1.6107 0 2.7997-.6648 1.2017-.6647 1.8537-1.8281.6647-1.1634.6647-2.6591zm15.2802 0 5.2799 8.9233h.2045l5.3052-8.9233h6.252l-7.99 13.0909L109.915 40h-6.367l-5.3692-8.9361h-.2045L92.6049 40H86.264l8.1946-13.0909-8.0412-13.0909z"/></g><defs><clipPath id="a"><path fill="#fff" d="M0 0h144v144H0z"/></clipPath></defs></svg>