<svg xmlns="http://www.w3.org/2000/svg" width="144" height="144" fill="none" viewBox="0 0 144 144"><g clip-path="url(#a)"><path fill="#fff" d="M67.6501 129.901V82.8006l-29.1 29.1004-6.3-6.3 33.6-33.6004-33.6-33.6 6.3-6.3 29.1 29.1v-47.1h4.5l32.0999 32.1-25.7999 25.8 25.7999 25.8-32.0999 32.1004zm9-68.7004 15-15-15-14.7zm0 51.3004 15-14.7004-15-15zm-46.65-33.3004q-3.063 0-5.2065-2.1t-2.1435-5.1 2.1435-5.25 5.2065-2.25 5.2065 2.25 2.1435 5.25-2.1435 5.1-5.2065 2.1m83.9999 0c-2.042 0-3.777-.7-5.206-2.1s-2.144-3.1-2.144-5.1.715-3.75 2.144-5.25 3.164-2.25 5.206-2.25 3.778.75 5.207 2.25 2.143 3.25 2.143 5.25-.714 3.7-2.143 5.1-3.165 2.1-5.207 2.1"/></g><defs><clipPath id="a"><path fill="#fff" d="M0 0h144v144H0z"/></clipPath></defs></svg>