<svg width="144" height="144" viewBox="0 0 144 144" fill="none" xmlns="http://www.w3.org/2000/svg">
<path d="M79.2 100.5V126H88.2V35.1L101.7 48.6L108 42.3L83.7 18L59.4 42.3L65.7 48.6L79.2 35.1V83.1V100.5Z" fill="#5A5A5A"/>
<path d="M79.2 100.5V126H88.2V100.5C88.2 93.5004 82.8039 87.0645 79.2 83.1002C76.2 79.8002 72.625 77.1002 68.475 75.0002C64.325 72.9002 59.15 71.8502 52.95 71.8502C51.35 71.8502 49.45 72.0002 47.25 72.3002C45.05 72.6002 43 73.0002 41.1 73.5002L54.6 60.0002L48.3 53.7002L24 78.0002L48.3 102.3L54.6 96.0002L41.1 82.5002C42.7 82.0002 44.6 81.6002 46.8 81.3002C49 81.0002 51.25 80.8502 53.55 80.8502C59.25 80.8502 64.475 82.5502 69.225 85.9502C73.975 89.3502 77.3 94.2002 79.2 100.5Z" fill="white"/>
</svg>
