<svg xmlns="http://www.w3.org/2000/svg" width="144" height="144" fill="none" viewBox="0 0 144 144"><g clip-path="url(#a)"><mask id="b" width="144" height="144" x="0" y="0" maskUnits="userSpaceOnUse" style="mask-type:alpha"><path fill="#d9d9d9" d="M0 0h144v144H0z"/></mask><g mask="url(#b)"><path fill="#fff" d="M67.1318 132.2c-13.7406-1.117-25.3027-6.758-34.6865-16.924q-14.0757-15.249-14.0757-36.1947 0-12.9027 5.9486-24.2973t16.673-18.6l7.2054 7.2054q-9.3837 5.5297-14.5784 15.1648-5.1945 9.6352-5.1945 20.5271 0 16.7568 11.0594 28.9887 11.0595 12.2325 27.6487 14.076zm10.054 0v-10.054c11.1712-1.34 20.3874-6.06 27.6482-14.159 7.262-8.0994 10.892-17.7346 10.892-28.9057q0-18.2649-12.651-30.9162-12.6513-12.6514-30.9162-12.6514h-3.3514l10.0541 10.0541-7.2054 7.2054-22.2865-22.2865L71.6561 8.2002l7.2054 7.2054-10.0541 10.0541h3.3514q22.454 0 38.0382 15.6675c10.389 10.4451 15.583 23.0964 15.583 37.9541 0 13.9639-4.664 26.0287-13.991 36.1947-9.328 10.166-20.8626 15.807-34.6032 16.924"/></g></g><defs><clipPath id="a"><path fill="#fff" d="M0 0h144v144H0z"/></clipPath></defs></svg>