<svg xmlns="http://www.w3.org/2000/svg" width="96" height="96" fill="none" viewBox="0 0 96 96"><path stroke="red" stroke-width="3" d="M48.0007 78.24c16.7011 0 30.24-13.5389 30.24-30.24s-13.5389-30.24-30.24-30.24-30.24 13.5389-30.24 30.24 13.539 30.24 30.24 30.24Z"/><path stroke="red" stroke-width="4.5" d="M74.305 21.696a37.2 37.2 0 0 1 8.064 40.54 37.2 37.2 0 0 1-8.064 12.069M21.696 21.696a37.2 37.2 0 0 0 0 52.609"/><path fill="red" d="M38.5869 65.8992V30.5007h11.8455q3.1274 0 4.7766.338 2.3134.4347 3.8771 1.6661 1.5636 1.2073 2.5062 3.4047.9638 2.1973.9638 4.8293 0 4.5154-2.5489 7.6545-2.549 3.1149-9.2108 3.1149h-8.0539v14.3914zm4.1555-18.5688h8.1183q4.0269 0 5.7192-1.6902t1.6922-4.7569q0-2.2214-1.0068-3.791-.9854-1.5936-2.6133-2.1007-1.0495-.314-3.877-.314h-8.0323z"/></svg>