<svg width="144" height="144" viewBox="0 0 144 144" fill="none" xmlns="http://www.w3.org/2000/svg">
<path d="M123 24C125.4 24 127.5 24.9002 129.3 26.7002C131.1 28.5002 132 30.6 132 33V111C132 113.4 131.1 115.5 129.3 117.3C127.5 119.1 125.4 120 123 120H21C18.6 120 16.5002 119.1 14.7002 117.3C12.9002 115.5 12 113.4 12 111V33C12 30.6 12.9002 28.5002 14.7002 26.7002C16.5002 24.9002 18.6 24 21 24H123ZM21 111H123V33H21V111Z" fill="white"/>
<path d="M66.5487 88.9027L94 61.4513L88.5487 56L66.5487 78L55.4513 66.9026L50 72.354L66.5487 88.9027Z" fill="white"/>
</svg>
