<svg xmlns="http://www.w3.org/2000/svg" width="662" height="128" fill="none" viewBox="0 0 662 128"><path fill="#fff" d="M0 126.035V0h10.8105v126.035zM38.8477 14.4141V0H51.416v14.4141zm.8789 111.6209V36.0352h10.8105v89.9998zm96.2404-24.697c0 3.633-.703 7.06-2.11 10.283-1.347 3.223-3.222 6.035-5.625 8.438-2.402 2.402-5.214 4.306-8.437 5.712-3.223 1.348-6.65 2.022-10.283 2.022h-7.207q-5.4496 0-10.2835-2.022-4.834-2.109-8.4375-5.712c-2.4024-2.403-4.3067-5.215-5.7129-8.438-1.3477-3.223-2.0215-6.65-2.0215-10.283V0h10.8106v43.5938q3.6914-4.3946 8.8769-6.8555t11.2499-2.461h2.725c3.633 0 7.06.7032 10.283 2.1094 3.223 1.3477 6.035 3.2227 8.437 5.625q3.6045 3.6036 5.625 8.4375c1.407 3.2227 2.11 6.6504 2.11 10.2832zm-10.811-41.2208q0-3.252-1.23-6.0645c-.821-1.9336-1.934-3.6035-3.34-5.0097q-2.109-2.1095-5.01-3.3399c-1.875-.8203-3.896-1.2304-6.064-1.2304h-7.207q-3.2522 0-6.1527 1.2304-2.8125 1.2304-4.9218 3.3399-2.1095 2.1093-3.3399 5.0097-1.2304 2.8125-1.2304 6.0645v41.8358c0 2.168.4101 4.219 1.2304 6.152.8203 1.875 1.9336 3.516 3.3399 4.922 1.4062 1.407 3.0468 2.52 4.9218 3.34 1.9336.821 3.9847 1.231 6.1527 1.231h7.207c2.168 0 4.189-.41 6.064-1.231 1.934-.82 3.604-1.933 5.01-3.34 1.406-1.406 2.519-3.047 3.34-4.922.82-1.933 1.23-3.984 1.23-6.152zm58.887-13.7988c-2.168 0-4.219.4101-6.152 1.2304-1.875.8203-3.516 1.9336-4.922 3.3399-1.407 1.4062-2.52 3.0761-3.34 5.0097-.82 1.875-1.231 3.8965-1.231 6.0645v64.0721h-10.81V36.0352h3.603l5.889 9.1406c2.461-3.3399 5.537-5.9766 9.229-7.9102q5.625-2.9883 12.216-2.9883h6.329v12.0411zm85.342 55.0196c0 3.633-.703 7.06-2.11 10.283-1.347 3.223-3.222 6.035-5.625 8.438-2.402 2.402-5.214 4.306-8.437 5.712-3.223 1.348-6.651 2.022-10.283 2.022h-7.207q-5.4495 0-10.284-2.022c-3.222-1.406-6.035-3.31-8.437-5.712-2.402-2.403-4.307-5.215-5.713-8.438-1.348-3.223-2.021-6.65-2.021-10.283V60.7324c0-3.6328.673-7.0605 2.021-10.2832 1.406-3.2226 3.311-6.0351 5.713-8.4375 2.402-2.4023 5.215-4.2773 8.437-5.625q4.8345-2.1093 10.284-2.1094h7.207c3.632 0 7.06.7032 10.283 2.1094 3.223 1.3477 6.035 3.2227 8.437 5.625q3.6045 3.6036 5.625 8.4375c1.407 3.2227 2.11 6.6504 2.11 10.2832v21.1817h-49.307v20.0389c0 2.168.41 4.219 1.231 6.152.82 1.875 1.933 3.516 3.339 4.922 1.407 1.407 3.047 2.52 4.922 3.34 1.934.821 3.985 1.231 6.153 1.231h7.207c2.168 0 4.189-.41 6.064-1.231 1.934-.82 3.604-1.933 5.01-3.34 1.406-1.406 2.519-3.047 3.34-4.922.82-1.933 1.23-3.984 1.23-6.152v-5.9764l10.811 1.7578zm-10.811-41.2208q0-3.252-1.23-6.0645c-.821-1.9336-1.934-3.6035-3.34-5.0097q-2.109-2.1095-5.01-3.3399c-1.875-.8203-3.896-1.2304-6.064-1.2304h-7.207q-3.252 0-6.153 1.2304c-1.875.8203-3.515 1.9336-4.922 3.3399q-2.109 2.1093-3.339 5.0097c-.821 1.875-1.231 3.8965-1.231 6.0645v13.3594h38.496zm94.307 43.0668c0 3.632-.733 6.972-2.197 10.019-1.465 2.988-3.457 5.567-5.977 7.735-2.519 2.167-5.449 3.867-8.789 5.097q-4.9215 1.758-10.371 1.758h-7.207c-3.633 0-7.119-.674-10.459-2.022-3.281-1.406-6.182-3.31-8.701-5.712-2.461-2.403-4.453-5.215-5.977-8.438-1.465-3.223-2.197-6.65-2.197-10.283v-3.6036l10.81-1.7578v5.9764c0 2.168.44 4.219 1.319 6.152.937 1.875 2.168 3.516 3.691 4.922 1.524 1.407 3.281 2.52 5.274 3.34 1.992.821 4.072 1.231 6.24 1.231h7.207c2.168 0 4.248-.323 6.24-.967 1.992-.645 3.75-1.553 5.274-2.725 1.582-1.23 2.812-2.695 3.691-4.394.937-1.7 1.406-3.633 1.406-5.801 0-3.223-.703-5.8594-2.109-7.9102q-2.109-3.0762-5.625-5.0977c-2.285-1.4062-4.922-2.5488-7.91-3.4277-2.93-.9375-5.948-1.8457-9.053-2.7246a120 120 0 0 1-9.141-3.1641c-2.929-1.1719-5.566-2.6953-7.91-4.5703-2.285-1.9336-4.131-4.3359-5.537-7.207q-2.109-4.3066-2.109-10.7227 0-5.4492 2.109-9.9316c1.406-3.0469 3.311-5.6543 5.713-7.8223s5.185-3.8379 8.35-5.0098c3.222-1.2304 6.65-1.8457 10.283-1.8457h6.328c3.633 0 7.06.7032 10.283 2.1094 3.223 1.3477 6.035 3.2227 8.438 5.625q3.603 3.6036 5.625 8.4375 2.109 4.834 2.109 10.2832v.3516l-10.811 1.7578v-2.7246q0-3.252-1.23-6.0645c-.82-1.9336-1.934-3.6035-3.34-5.0097q-2.109-2.1095-5.01-3.3399c-1.875-.8203-3.896-1.2304-6.064-1.2304h-6.328q-3.252 0-6.153.9668c-1.875.6445-3.515 1.582-4.921 2.8125-1.407 1.1718-2.52 2.6074-3.34 4.3066-.821 1.6992-1.231 3.6328-1.231 5.8008 0 3.1054.703 5.6543 2.11 7.6465 1.406 1.9336 3.252 3.5742 5.537 4.9218 2.343 1.3477 4.98 2.4903 7.91 3.4278 2.988.8789 6.006 1.8164 9.053 2.8125 3.105.9375 6.123 2.0215 9.052 3.2519 2.989 1.2305 5.625 2.8125 7.91 4.7461q3.516 2.9004 5.625 7.2949c1.407 2.8711 2.11 6.4453 2.11 10.7231m80.859-1.846c0 3.633-.703 7.06-2.109 10.283-1.348 3.223-3.223 6.035-5.625 8.438-2.402 2.402-5.215 4.306-8.438 5.712-3.222 1.348-6.65 2.022-10.283 2.022h-7.207c-3.633 0-7.06-.674-10.283-2.022-3.223-1.406-6.035-3.31-8.438-5.712-2.402-2.403-4.306-5.215-5.712-8.438-1.348-3.223-2.022-6.65-2.022-10.283V60.7324q0-5.4492 2.022-10.2832 2.109-4.8339 5.712-8.4375c2.403-2.4023 5.215-4.2773 8.438-5.625 3.223-1.4062 6.65-2.1094 10.283-2.1094h7.207c3.633 0 7.061.7032 10.283 2.1094 3.223 1.3477 6.036 3.2227 8.438 5.625q3.603 3.6036 5.625 8.4375 2.109 4.834 2.109 10.2832v3.6035l-10.81 1.7579v-5.9766c0-2.168-.41-4.1895-1.231-6.0645-.82-1.9336-1.933-3.6035-3.34-5.0097-1.406-1.4063-3.076-2.5196-5.009-3.3399-1.875-.8203-3.897-1.2304-6.065-1.2304h-7.207c-2.168 0-4.219.4101-6.152 1.2304-1.875.8203-3.516 1.9336-4.922 3.3399-1.406 1.4062-2.52 3.0761-3.34 5.0097q-1.23 2.8125-1.23 6.0645v41.8358c0 2.168.41 4.219 1.23 6.152.82 1.875 1.934 3.516 3.34 4.922 1.406 1.407 3.047 2.52 4.922 3.34 1.933.821 3.984 1.231 6.152 1.231h7.207c2.168 0 4.19-.41 6.065-1.231 1.933-.82 3.603-1.933 5.009-3.34 1.407-1.406 2.52-3.047 3.34-4.922.821-1.933 1.231-3.984 1.231-6.152v-5.9764l10.81 1.7578zm81.739 0c0 3.633-.704 7.06-2.11 10.283-1.348 3.223-3.223 6.035-5.625 8.438-2.402 2.402-5.215 4.306-8.437 5.712q-4.8345 2.022-10.284 2.022h-7.207c-3.632 0-7.06-.674-10.283-2.022-3.222-1.406-6.035-3.31-8.437-5.712-2.403-2.403-4.307-5.215-5.713-8.438-1.348-3.223-2.022-6.65-2.022-10.283V60.7324q0-5.4492 2.022-10.2832c1.406-3.2226 3.31-6.0351 5.713-8.4375 2.402-2.4023 5.215-4.2773 8.437-5.625 3.223-1.4062 6.651-2.1094 10.283-2.1094h7.207q5.4495 0 10.284 2.1094c3.222 1.3477 6.035 3.2227 8.437 5.625q3.603 3.6036 5.625 8.4375c1.406 3.2227 2.11 6.6504 2.11 10.2832zm-10.811-41.2208q0-3.252-1.23-6.0645c-.821-1.9336-1.934-3.6035-3.34-5.0097q-2.1105-2.1095-5.01-3.3399c-1.875-.8203-3.897-1.2304-6.065-1.2304h-7.207c-2.168 0-4.218.4101-6.152 1.2304-1.875.8203-3.516 1.9336-4.922 3.3399-1.406 1.4062-2.519 3.0761-3.34 5.0097q-1.23 2.8125-1.23 6.0645v41.8358c0 2.168.41 4.219 1.23 6.152.821 1.875 1.934 3.516 3.34 4.922 1.406 1.407 3.047 2.52 4.922 3.34 1.934.821 3.984 1.231 6.152 1.231h7.207c2.168 0 4.19-.41 6.065-1.231 1.933-.82 3.603-1.933 5.01-3.34 1.406-1.406 2.519-3.047 3.34-4.922.82-1.933 1.23-3.984 1.23-6.152zm92.549 41.2208c0 3.633-.703 7.06-2.11 10.283-1.347 3.223-3.222 6.035-5.625 8.438-2.402 2.402-5.214 4.306-8.437 5.712-3.223 1.348-6.65 2.022-10.283 2.022h-7.207q-5.4495 0-10.284-2.022c-3.222-1.406-6.035-3.31-8.437-5.712-2.402-2.403-4.307-5.215-5.713-8.438-1.348-3.223-2.021-6.65-2.021-10.283V60.7324c0-3.6328.673-7.0605 2.021-10.2832 1.406-3.2226 3.311-6.0351 5.713-8.4375 2.402-2.4023 5.215-4.2773 8.437-5.625q4.8345-2.1093 10.284-2.1094h7.207c3.633 0 7.06.7032 10.283 2.1094 3.223 1.3477 6.035 3.2227 8.437 5.625q3.6045 3.6036 5.625 8.4375c1.407 3.2227 2.11 6.6504 2.11 10.2832zm-10.811-41.2208q0-3.252-1.23-6.0645c-.821-1.9336-1.934-3.6035-3.34-5.0097q-2.109-2.1095-5.01-3.3399c-1.875-.8203-3.896-1.2304-6.064-1.2304h-7.207q-3.252 0-6.153 1.2304c-1.875.8203-3.515 1.9336-4.922 3.3399q-2.109 2.1093-3.339 5.0097c-.821 1.875-1.231 3.8965-1.231 6.0645v41.8358c0 2.168.41 4.219 1.231 6.152.82 1.875 1.933 3.516 3.339 4.922 1.407 1.407 3.047 2.52 4.922 3.34 1.934.821 3.985 1.231 6.153 1.231h7.207c2.168 0 4.189-.41 6.064-1.231 1.934-.82 3.604-1.933 5.01-3.34 1.406-1.406 2.519-3.047 3.34-4.922.82-1.933 1.23-3.984 1.23-6.152zm65.215 65.9178c-3.281 0-6.387-.615-9.316-1.846-2.871-1.23-5.391-2.929-7.559-5.097-2.109-2.168-3.808-4.688-5.098-7.559q-1.845-4.3065-1.845-9.228V46.3184h-16.172V36.0352h16.172V14.4141l10.81-1.7579v23.379h22.852v10.2832h-22.852v56.5136c0 1.816.323 3.516.967 5.098.703 1.523 1.641 2.871 2.813 4.043 1.171 1.172 2.548 2.109 4.13 2.812 1.582.645 3.282.967 5.098.967h9.844v10.283z"/></svg>