<svg xmlns="http://www.w3.org/2000/svg" width="96" height="96" fill="none" viewBox="0 0 96 96"><path stroke="#ffea00" stroke-width="4.5" d="M14.5633 41.8517c0-1.8557 1.5044-3.36 3.36-3.36h2.9166c1.8557 0 3.36-1.5043 3.36-3.36v-1.5173c0-1.8557 1.5043-3.36 3.36-3.36h27.3648c1.8557 0 3.36 1.5043 3.36 3.36v1.5173c0 1.8557 1.5043 3.36 3.36 3.36h9.8218c1.8557 0 3.36 1.5043 3.36 3.36v1.8702c0 1.8557 1.5043 3.36 3.36 3.36h.3731c1.8556 0 3.36-1.5043 3.36-3.36v-5.6731c0-1.4448 1.1712-2.616 2.616-2.616a2.512 2.512 0 0 1 2.3283 1.7821l2.4671 7.3358a16.32 16.32 0 0 1 .8514 5.2023v9.263c0 1.7688-.2876 3.5258-.8514 5.2022l-2.4671 7.3359a2.512 2.512 0 0 1-2.3283 1.7821c-1.4448 0-2.616-1.1712-2.616-2.616V65.047c0-1.8556-1.5044-3.36-3.36-3.36h-.3731c-1.8557 0-3.36 1.5044-3.36 3.36v8.8844c0 1.8556-1.5043 3.36-3.36 3.36H38.1214a3.36 3.36 0 0 1-2.3759-.9841l-8.7485-8.7485a3.36 3.36 0 0 0-2.3758-.9841h-6.7397c-1.8557 0-3.36-1.5043-3.36-3.36.0226-7.1208.0306-14.2416.0417-21.3624z"/><path fill="#ffea00" d="M26.563 20.656v3.84h8.998v5.758h12.72v-5.758h8.997v-3.84zm-12.012 29.01H7.867v14.042l-2.88-2.88V48.29l-1.089-1.089V35.753l3.969-3.969v14.042h6.69z"/></svg>