<svg xmlns="http://www.w3.org/2000/svg" width="144" height="144" fill="none" viewBox="0 0 144 144"><g clip-path="url(#a)"><mask id="b" width="144" height="144" x="0" y="0" maskUnits="userSpaceOnUse" style="mask-type:alpha"><path fill="#d9d9d9" d="M0 0h144v144H0z"/></mask><g fill="#fff" mask="url(#b)"><path d="M78.5116 46.2793c-18.3628.2604-28.1628 18.7219-30.9302 27.3488 0-1.5737-1.8558-5.1117-7.3256-8.6279s-13.0775-2.3323-16.6046-1.3013c-2.6589 1.1396-6.0558 5.0129.3255 11.3943 7.1628 7.1628 15.3024 10.7442 20.3489 11.8848-1.3023.8139-2.3526 3.4186-2.9303 5.2093-1.3023 4.0372.7597 5.2093 2.1163 5.6977 2.9303.217 9.214-.0326 10.2558-1.4651 1.3024-1.7907 1.9535-5.2998 3.0931-5.0466 6.5116 1.4471 28.3255.9768 42-.4883.2713 1.248 1.9205 4.0697 3.0925 5.3721 1.466 1.6279 6.838 1.6279 10.907.4883 3.256-.9116 2.768-3.7984 2.117-5.2093-.977-2.1162-3.093-5.2093-1.465-6.5116 3.241-2.5927 3.744-1.9535 7.651-4.3953 3.093-2.6047 3.256-4.884 1.628-6.1863-1.628-1.3024-8.303.9767-10.907-2.1163-4.396-8.9535-15.0096-26.3078-33.3724-26.0473"/><path d="M142 72c0 38.66-31.34 70-70 70S2 110.66 2 72 33.3401 2 72 2s70 31.3401 70 70M12.4496 72c0 32.889 26.6616 59.55 59.5504 59.55 32.889 0 59.55-26.661 59.55-59.55 0-32.8888-26.661-59.5504-59.55-59.5504-32.8888 0-59.5504 26.6616-59.5504 59.5504"/></g></g><defs><clipPath id="a"><path fill="#fff" d="M0 0h144v144H0z"/></clipPath></defs></svg>