<svg xmlns="http://www.w3.org/2000/svg" width="144" height="144" fill="none" viewBox="0 0 144 144"><path fill="#fff" d="M67.5 137.7v-11.25q-20.55-2.1-34.2-15.75T17.55 76.5H6.3v-9h11.25q2.1-20.55 15.75-34.2t34.2-15.75V6.3h9v11.25q20.55 2.1 34.2 15.75t15.75 34.2h11.25v9h-11.25q-2.1 20.55-15.75 34.2t-34.2 15.75v11.25zm4.5-20.1q18.75 0 32.175-13.425T117.6 72t-13.425-32.1749Q90.75 26.4 72 26.4T39.825 39.8251 26.4 72q0 18.75 13.425 32.175T72 117.6"/><path fill="#fff" d="M71.8298 98.6655q-2.1683 0-3.7058-1.5442t-1.5375-3.7125 1.5443-3.7058 3.7125-1.5375 3.7057 1.5443q1.5375 1.5442 1.5375 3.7125t-1.5442 3.7057-3.7125 1.5375m-5.2433-18v-36h10.5v36z"/></svg>