<svg width="144" height="144" viewBox="0 0 144 144" fill="none" xmlns="http://www.w3.org/2000/svg">
  <mask id="path-1-outside-1_814_217" maskUnits="userSpaceOnUse" x="73" y="39" width="65"
    height="21" fill="black">
    <rect fill="white" x="73" y="39" width="65" height="21" />
    <path
      d="M84.0451 55.6648C82.3576 55.6648 80.9087 55.0682 79.6985 53.875C78.5053 52.6648 77.9087 51.2159 77.9087 49.5284C77.9087 47.858 78.5053 46.4261 79.6985 45.233C80.9087 44.0398 82.3576 43.4432 84.0451 43.4432C85.6815 43.4432 87.1133 44.0398 88.3406 45.233C89.5678 46.4261 90.1815 47.858 90.1815 49.5284C90.1815 50.6534 89.8917 51.6847 89.3121 52.6222C88.7496 53.5426 88.0082 54.2841 87.0877 54.8466C86.1673 55.392 85.1531 55.6648 84.0451 55.6648ZM105.49 55.6648C103.803 55.6648 102.354 55.0682 101.144 53.875C99.9506 52.6648 99.354 51.2159 99.354 49.5284C99.354 47.858 99.9506 46.4261 101.144 45.233C102.354 44.0398 103.803 43.4432 105.49 43.4432C107.127 43.4432 108.559 44.0398 109.786 45.233C111.013 46.4261 111.627 47.858 111.627 49.5284C111.627 50.6534 111.337 51.6847 110.757 52.6222C110.195 53.5426 109.453 54.2841 108.533 54.8466C107.613 55.392 106.598 55.6648 105.49 55.6648ZM126.936 55.6648C125.248 55.6648 123.799 55.0682 122.589 53.875C121.396 52.6648 120.799 51.2159 120.799 49.5284C120.799 47.858 121.396 46.4261 122.589 45.233C123.799 44.0398 125.248 43.4432 126.936 43.4432C128.572 43.4432 130.004 44.0398 131.231 45.233C132.458 46.4261 133.072 47.858 133.072 49.5284C133.072 50.6534 132.782 51.6847 132.203 52.6222C131.64 53.5426 130.899 54.2841 129.978 54.8466C129.058 55.392 128.044 55.6648 126.936 55.6648Z" />
  </mask>
  <path
    d="M84.0451 55.6648C82.3576 55.6648 80.9087 55.0682 79.6985 53.875C78.5053 52.6648 77.9087 51.2159 77.9087 49.5284C77.9087 47.858 78.5053 46.4261 79.6985 45.233C80.9087 44.0398 82.3576 43.4432 84.0451 43.4432C85.6815 43.4432 87.1133 44.0398 88.3406 45.233C89.5678 46.4261 90.1815 47.858 90.1815 49.5284C90.1815 50.6534 89.8917 51.6847 89.3121 52.6222C88.7496 53.5426 88.0082 54.2841 87.0877 54.8466C86.1673 55.392 85.1531 55.6648 84.0451 55.6648ZM105.49 55.6648C103.803 55.6648 102.354 55.0682 101.144 53.875C99.9506 52.6648 99.354 51.2159 99.354 49.5284C99.354 47.858 99.9506 46.4261 101.144 45.233C102.354 44.0398 103.803 43.4432 105.49 43.4432C107.127 43.4432 108.559 44.0398 109.786 45.233C111.013 46.4261 111.627 47.858 111.627 49.5284C111.627 50.6534 111.337 51.6847 110.757 52.6222C110.195 53.5426 109.453 54.2841 108.533 54.8466C107.613 55.392 106.598 55.6648 105.49 55.6648ZM126.936 55.6648C125.248 55.6648 123.799 55.0682 122.589 53.875C121.396 52.6648 120.799 51.2159 120.799 49.5284C120.799 47.858 121.396 46.4261 122.589 45.233C123.799 44.0398 125.248 43.4432 126.936 43.4432C128.572 43.4432 130.004 44.0398 131.231 45.233C132.458 46.4261 133.072 47.858 133.072 49.5284C133.072 50.6534 132.782 51.6847 132.203 52.6222C131.64 53.5426 130.899 54.2841 129.978 54.8466C129.058 55.392 128.044 55.6648 126.936 55.6648Z"
    fill="white" />
  <path
    d="M79.6985 53.875L76.8501 56.6833L76.87 56.7035L76.8902 56.7234L79.6985 53.875ZM79.6985 45.233L76.8902 42.3845L76.8801 42.3945L76.8701 42.4045L79.6985 45.233ZM88.3406 45.233L85.5522 48.1009L85.5522 48.1009L88.3406 45.233ZM89.3121 52.6222L85.9098 50.5189L85.9044 50.5276L85.899 50.5364L89.3121 52.6222ZM87.0877 54.8466L89.1269 58.2878L89.1503 58.2739L89.1735 58.2597L87.0877 54.8466ZM84.0451 55.6648V51.6648C83.417 51.6648 82.9746 51.4878 82.5068 51.0266L79.6985 53.875L76.8902 56.7234C78.8429 58.6486 81.2982 59.6648 84.0451 59.6648V55.6648ZM79.6985 53.875L82.5469 51.0667C82.0858 50.5989 81.9087 50.1565 81.9087 49.5284H77.9087H73.9087C73.9087 52.2753 74.9249 54.7306 76.8501 56.6833L79.6985 53.875ZM77.9087 49.5284H81.9087C81.9087 48.9309 82.0753 48.513 82.5269 48.0614L79.6985 45.233L76.8701 42.4045C74.9353 44.3393 73.9087 46.785 73.9087 49.5284H77.9087ZM79.6985 45.233L82.5068 48.0814C82.9746 47.6202 83.417 47.4432 84.0451 47.4432V43.4432V39.4432C81.2982 39.4432 78.8429 40.4593 76.8902 42.3845L79.6985 45.233ZM84.0451 43.4432V47.4432C84.5881 47.4432 85.0335 47.5966 85.5522 48.1009L88.3406 45.233L91.1289 42.365C89.1931 40.4829 86.7748 39.4432 84.0451 39.4432V43.4432ZM88.3406 45.233L85.5522 48.1009C86.0264 48.5619 86.1815 48.968 86.1815 49.5284H90.1815H94.1815C94.1815 46.7479 93.1093 44.2904 91.1289 42.365L88.3406 45.233ZM90.1815 49.5284H86.1815C86.1815 49.9266 86.0902 50.227 85.9098 50.5189L89.3121 52.6222L92.7145 54.7254C93.6932 53.1423 94.1815 51.3802 94.1815 49.5284H90.1815ZM89.3121 52.6222L85.899 50.5364C85.6674 50.9153 85.3809 51.2019 85.0019 51.4335L87.0877 54.8466L89.1735 58.2597C90.6354 57.3663 91.8319 56.1699 92.7253 54.708L89.3121 52.6222ZM87.0877 54.8466L85.0485 51.4054C84.7679 51.5717 84.4622 51.6648 84.0451 51.6648V55.6648V59.6648C85.8439 59.6648 87.5666 59.2124 89.1269 58.2878L87.0877 54.8466ZM101.144 53.875L98.2954 56.6833L98.3153 56.7035L98.3355 56.7234L101.144 53.875ZM101.144 45.233L98.3355 42.3845L98.3254 42.3945L98.3154 42.4045L101.144 45.233ZM109.786 45.233L106.998 48.1009L106.998 48.1009L109.786 45.233ZM110.757 52.6222L107.355 50.5189L107.35 50.5276L107.344 50.5364L110.757 52.6222ZM108.533 54.8466L110.572 58.2878L110.596 58.2739L110.619 58.2597L108.533 54.8466ZM105.49 55.6648V51.6648C104.862 51.6648 104.42 51.4878 103.952 51.0266L101.144 53.875L98.3355 56.7234C100.288 58.6486 102.744 59.6648 105.49 59.6648V55.6648ZM101.144 53.875L103.992 51.0667C103.531 50.5989 103.354 50.1565 103.354 49.5284H99.354H95.354C95.354 52.2753 96.3702 54.7306 98.2954 56.6833L101.144 53.875ZM99.354 49.5284H103.354C103.354 48.9309 103.521 48.513 103.972 48.0614L101.144 45.233L98.3154 42.4045C96.3806 44.3393 95.354 46.785 95.354 49.5284H99.354ZM101.144 45.233L103.952 48.0814C104.42 47.6202 104.862 47.4432 105.49 47.4432V43.4432V39.4432C102.744 39.4432 100.288 40.4593 98.3355 42.3845L101.144 45.233ZM105.49 43.4432V47.4432C106.033 47.4432 106.479 47.5966 106.998 48.1009L109.786 45.233L112.574 42.365C110.638 40.4829 108.22 39.4432 105.49 39.4432V43.4432ZM109.786 45.233L106.998 48.1009C107.472 48.5619 107.627 48.968 107.627 49.5284H111.627H115.627C115.627 46.7479 114.555 44.2904 112.574 42.365L109.786 45.233ZM111.627 49.5284H107.627C107.627 49.9266 107.535 50.227 107.355 50.5189L110.757 52.6222L114.16 54.7254C115.139 53.1423 115.627 51.3802 115.627 49.5284H111.627ZM110.757 52.6222L107.344 50.5364C107.113 50.9153 106.826 51.2019 106.447 51.4335L108.533 54.8466L110.619 58.2597C112.081 57.3663 113.277 56.1699 114.171 54.708L110.757 52.6222ZM108.533 54.8466L106.494 51.4054C106.213 51.5717 105.907 51.6648 105.49 51.6648V55.6648V59.6648C107.289 59.6648 109.012 59.2124 110.572 58.2878L108.533 54.8466ZM122.589 53.875L119.741 56.6833L119.761 56.7035L119.781 56.7234L122.589 53.875ZM122.589 45.233L119.781 42.3845L119.771 42.3945L119.761 42.4045L122.589 45.233ZM131.231 45.233L128.443 48.1009L128.443 48.1009L131.231 45.233ZM132.203 52.6222L128.8 50.5189L128.795 50.5276L128.79 50.5364L132.203 52.6222ZM129.978 54.8466L132.018 58.2878L132.041 58.2739L132.064 58.2597L129.978 54.8466ZM126.936 55.6648V51.6648C126.308 51.6648 125.865 51.4878 125.397 51.0266L122.589 53.875L119.781 56.7234C121.734 58.6486 124.189 59.6648 126.936 59.6648V55.6648ZM122.589 53.875L125.438 51.0667C124.976 50.5989 124.799 50.1565 124.799 49.5284H120.799H116.799C116.799 52.2753 117.816 54.7306 119.741 56.6833L122.589 53.875ZM120.799 49.5284H124.799C124.799 48.9309 124.966 48.513 125.418 48.0614L122.589 45.233L119.761 42.4045C117.826 44.3393 116.799 46.785 116.799 49.5284H120.799ZM122.589 45.233L125.397 48.0814C125.865 47.6202 126.308 47.4432 126.936 47.4432V43.4432V39.4432C124.189 39.4432 121.734 40.4593 119.781 42.3845L122.589 45.233ZM126.936 43.4432V47.4432C127.479 47.4432 127.924 47.5966 128.443 48.1009L131.231 45.233L134.019 42.365C132.084 40.4829 129.665 39.4432 126.936 39.4432V43.4432ZM131.231 45.233L128.443 48.1009C128.917 48.5619 129.072 48.968 129.072 49.5284H133.072H137.072C137.072 46.7479 136 44.2904 134.019 42.365L131.231 45.233ZM133.072 49.5284H129.072C129.072 49.9266 128.981 50.227 128.8 50.5189L132.203 52.6222L135.605 54.7254C136.584 53.1423 137.072 51.3802 137.072 49.5284H133.072ZM132.203 52.6222L128.79 50.5364C128.558 50.9153 128.272 51.2019 127.893 51.4335L129.978 54.8466L132.064 58.2597C133.526 57.3663 134.723 56.1699 135.616 54.708L132.203 52.6222ZM129.978 54.8466L127.939 51.4054C127.659 51.5717 127.353 51.6648 126.936 51.6648V55.6648V59.6648C128.735 59.6648 130.457 59.2124 132.018 58.2878L129.978 54.8466Z"
    fill="black" mask="url(#path-1-outside-1_814_217)" />
</svg>