<svg xmlns="http://www.w3.org/2000/svg" width="144" height="144" fill="none" viewBox="0 0 144 144"><g clip-path="url(#a)"><mask id="b" width="144" height="144" x="0" y="0" maskUnits="userSpaceOnUse" style="mask-type:alpha"><path fill="#d9d9d9" d="M0 0h144v144H0z"/></mask><g mask="url(#b)"><path fill="#fff" d="M21 120q-3.6 0-6.3-2.7T12 111V33q0-3.6 2.7-6.3T21 24h37.5v9H21v78h102V33H85.5v-9H123q3.6 0 6.3 2.7T132 33v78q0 3.6-2.7 6.3T123 120zm51-27.75-30-30 6.45-6.45L67.5 74.85V24h9v50.85L95.55 55.8l6.45 6.45z"/></g></g><defs><clipPath id="a"><path fill="#fff" d="M0 0h144v144H0z"/></clipPath></defs></svg>