<svg width="144" height="144" viewBox="0 0 144 144" fill="none" xmlns="http://www.w3.org/2000/svg">
<path d="M56.55 28.6201H19.05V106.62H84.0676C84.1671 109.76 84.733 112.783 85.6994 115.62H19.05C16.65 115.62 14.5502 114.72 12.7502 112.92C10.9502 111.12 10.05 109.02 10.05 106.62V28.6201C10.05 26.2201 10.9502 24.1203 12.7502 22.3203C14.5502 20.5203 16.65 19.6201 19.05 19.6201H56.55V28.6201Z" fill="white"/>
<path d="M74.55 70.4697L93.5998 51.4199L100.05 57.8701L70.05 87.8701L40.05 57.8701L46.5002 51.4199L65.55 70.4697V19.6201H74.55V70.4697Z" fill="white"/>
<path d="M121.05 19.6201C123.45 19.6201 125.55 20.5203 127.35 22.3203C129.15 24.1203 130.05 26.2201 130.05 28.6201V78.4863C127.282 76.9527 124.255 75.8307 121.05 75.2021V28.6201H83.55V19.6201H121.05Z" fill="white"/>
<path d="M96.15 118.126L102.45 124.38L115.05 112.022L127.65 124.38L133.95 118.126L121.5 105.62L133.95 93.114L127.65 86.8609L115.05 99.3671L102.45 86.8609L96.15 93.114L108.75 105.62L96.15 118.126Z" fill="white"/>
</svg>
