<svg width="1440" height="1440" viewBox="0 0 1440 1440" fill="none" xmlns="http://www.w3.org/2000/svg">
<path d="M113.816 574.071L310.559 763.238C328.654 732.161 355.679 706.488 424.589 706.488C500.969 707.776 513.768 709.19 544.845 748.375C575.923 787.56 719.149 787.56 719.149 787.56H1251.52L1251.5 787.541C1251.96 787.549 1252.41 787.56 1252.87 787.56C1293.91 787.56 1327.18 754.287 1327.18 713.244C1327.18 672.201 1293.91 638.929 1252.87 638.929C1211.83 638.929 1178.55 672.201 1178.55 713.244L1177.02 714.804C1169.18 722.632 1159.08 730.784 1140.72 730.81H719.149L544.845 551.101C502.394 511.944 474.793 498.779 417.833 493H113.816V574.071Z" fill="white"/>
<path d="M113.815 860.524H113.834C113.827 860.973 113.815 861.424 113.815 861.875C113.815 908.888 151.927 947 198.94 947C256.763 947 294.875 908.888 294.875 861.875C294.875 861.424 294.864 860.973 294.857 860.524H294.875V772.696L113.815 602.446V860.524Z" fill="white"/>
</svg>
