<svg xmlns="http://www.w3.org/2000/svg" width="144" height="144" fill="none" viewBox="0 0 144 144"><g clip-path="url(#a)"><path fill="#fff" d="M37.65 119.999q-13.2 0-22.425-9.225C9.075 104.624 6 97.1494 6 88.3494q0-11.7 7.5-20.55t19.05-10.65q3-14.55 14.1-23.775t25.65-9.225q16.8 0 28.35 12.225t11.55 29.325v3.6q10.8-.3 18.3 6.975t7.5 18.375q0 10.3495-7.5 17.8496t-17.85 7.5zm0-9h75q6.75 0 11.55-4.8c3.2-3.2 4.8-7.0496 4.8-11.5496q0-6.75-4.8-11.55t-11.55-4.8h-9.45v-12.6q0-13.65-9.15-23.1t-22.35-9.45-22.425 9.45-9.225 23.1H37.2q-9.3 0-15.75 6.525T15 88.3494q0 9.4501 6.6 16.0496 6.6 6.6 16.05 6.6"/></g><defs><clipPath id="a"><path fill="#fff" d="M0 0h144v144H0z"/></clipPath></defs></svg>