<svg xmlns="http://www.w3.org/2000/svg" width="144" height="144" fill="none" viewBox="0 0 144 144"><g clip-path="url(#a)"><path fill="#fff" d="m122.7 135.601-17.25-17.25H37.2q-13.2 0-22.2-8.85T6 87.4508q0-12 7.575-20.1t18.975-9.9q.3-2.1.975-4.725t1.875-4.725l-24.9-24.9 6.3-6.3L129.15 129.151zm-85.5-26.25h59.55l-54-54.0002q-1.65 2.25-2.175 5.1t-.525 5.55H37.2q-9.3 0-15.75 5.925T15 87.0758t6.45 15.7502q6.45 6.525 15.75 6.525m90.9 4.35-7.05-7.05q3.75-2.55 5.85-5.7 2.1-3.1502 2.1-7.5002 0-6.45-4.65-11.025t-11.1-4.575H103.2v-12.15q0-13.2-9.15-22.125t-22.2795-8.925q-4.2705 0-9.1455 1.35t-8.925 4.35l-6.3-6.3q5.4-4.35 11.625-6.375t12.675-2.025q16.65 0 28.575 11.85t11.925 28.5v3.15q10.8-.15 18.3 6.75t7.5 17.55q0 5.2501-2.475 11.0252t-7.425 9.225"/></g><defs><clipPath id="a"><path fill="#fff" d="M0 0h144v144H0z"/></clipPath></defs></svg>