<svg xmlns="http://www.w3.org/2000/svg" width="1440" height="1440" fill="none" viewBox="0 0 1440 1440"><path fill="#fff" fill-rule="evenodd" d="M173 400v639.5l50-10c0-57.836 12.97-187.008 218.269-230.155-9.45 18.851-14.769 40.132-14.769 62.655v12c0 77.32 62.68 140 140 140h442c77.32 0 140-62.68 140-140v-12c0-37.875-31.5-80-39.47-97.44l43.47-2.56c36.57 5.105 51.35 17.126 76.5 40.5h38V641h-38c-24.43 15.939-33.3 26.889-76.5 35S598 656 598 656c-340 0-375-169-375-239zm393.5 400h442c34.24 0 62 27.758 62 62v12c0 34.242-27.76 62-62 62h-442c-34.242 0-62-27.758-62-62v-12c0-34.242 27.758-62 62-62" clip-rule="evenodd"/></svg>