<svg width="144" height="144" viewBox="0 0 144 144" fill="none" xmlns="http://www.w3.org/2000/svg">
<path d="M64.8 100.5V126H55.8V35.1L42.3 48.6L36 42.3L60.3 18L84.6 42.3L78.3 48.6L64.8 35.1V83.1V100.5Z" fill="#5A5A5A"/>
<path d="M64.8 100.5V126H55.8V100.5C55.8 93.5004 61.1961 87.0645 64.8 83.1002C67.8 79.8002 71.375 77.1002 75.525 75.0002C79.675 72.9002 84.85 71.8502 91.05 71.8502C92.65 71.8502 94.55 72.0002 96.75 72.3002C98.95 72.6002 101 73.0002 102.9 73.5002L89.4 60.0002L95.7 53.7002L120 78.0002L95.7 102.3L89.4 96.0002L102.9 82.5002C101.3 82.0002 99.4 81.6002 97.2 81.3002C95 81.0002 92.75 80.8502 90.45 80.8502C84.75 80.8502 79.525 82.5502 74.775 85.9502C70.025 89.3502 66.7 94.2002 64.8 100.5Z" fill="white"/>
</svg>
