<svg xmlns="http://www.w3.org/2000/svg" width="144" height="144" fill="none" viewBox="0 0 144 144"><g clip-path="url(#a)"><mask id="b" width="144" height="144" x="0" y="0" maskUnits="userSpaceOnUse" style="mask-type:alpha"><path fill="#d9d9d9" d="M0 0h144v144H0z"/></mask><g mask="url(#b)"><path stroke="#fff" stroke-width="8" d="M39 56h8c1.6569 0 3 1.3431 3 3v5h44v-5c0-1.6569 1.3431-3 3-3h8c1.657 0 3 1.3431 3 3v5h8c3.314 0 6 2.6863 6 6v51c0 3.314-2.686 6-6 6H28c-3.3137 0-6-2.686-6-6V70c0-3.3137 2.6863-6 6-6h8v-5c0-1.6569 1.3431-3 3-3Z"/><mask id="c" width="48" height="48" x="48" y="7" maskUnits="userSpaceOnUse" style="mask-type:alpha"><path fill="#d9d9d9" d="M48 7h48v48H48z"/></mask><g mask="url(#c)"><path fill="#fff" d="M72 48.65q-1.8 0-3.15-1.35t-1.35-3.15T68.85 41 72 39.65 75.15 41t1.35 3.15-1.35 3.15T72 48.65m-12.4-11.5L56.45 34q3.5-3.5 7.325-5.25T72 27t8.225 1.75T87.55 34l-3.15 3.15q-3.05-3.05-6.15-4.35T72 31.5t-6.25 1.3-6.15 4.35m-8.45-8.45L48 25.55q4.65-4.75 10.825-7.65T72 15t13.175 2.9T96 25.55l-3.15 3.15q-4.4-4.2-9.625-6.7T72 19.5 60.775 22t-9.625 6.7"/></g></g><path fill="#fff" d="M30 72h42v47H30z"/></g><defs><clipPath id="a"><path fill="#fff" d="M0 0h144v144H0z"/></clipPath></defs></svg>