<svg width="144" height="144" viewBox="0 0 144 144" fill="none" xmlns="http://www.w3.org/2000/svg">
<g clip-path="url(#clip0_1066_462)">
<mask id="mask0_1066_462" style="mask-type:alpha" maskUnits="userSpaceOnUse" x="0" y="0" width="144" height="144">
<rect width="144" height="144" fill="#D9D9D9"/>
</mask>
<g mask="url(#mask0_1066_462)">
<path d="M33 120C30.6 120 28.5 119.1 26.7 117.3C24.9 115.5 24 113.4 24 111V89.5498H33V111H111V89.5498H120V111C120 113.4 119.1 115.5 117.3 117.3C115.5 119.1 113.4 120 111 120H33Z" fill="white"/>
<path d="M50.5547 95.1108C48.8672 95.1108 47.4183 94.5142 46.2081 93.321C45.0149 92.1108 44.4183 90.6619 44.4183 88.9744C44.4183 87.3039 45.0149 85.8721 46.2081 84.6789C47.4183 83.4858 48.8672 82.8892 50.5547 82.8892C52.1911 82.8892 53.6229 83.4858 54.8502 84.6789C56.0774 85.8721 56.6911 87.3039 56.6911 88.9744C56.6911 90.0994 56.4013 91.1306 55.8217 92.0681C55.2592 92.9886 54.5178 93.7301 53.5973 94.2926C52.6769 94.838 51.6627 95.1108 50.5547 95.1108Z" fill="white"/>
<path d="M72 95.1108C70.3125 95.1108 68.8636 94.5142 67.6534 93.321C66.4602 92.1108 65.8636 90.6619 65.8636 88.9744C65.8636 87.3039 66.4602 85.8721 67.6534 84.6789C68.8636 83.4858 70.3125 82.8892 72 82.8892C73.6364 82.8892 75.0682 83.4858 76.2955 84.6789C77.5227 85.8721 78.1364 87.3039 78.1364 88.9744C78.1364 90.0994 77.8466 91.1306 77.2671 92.0681C76.7046 92.9886 75.9631 93.7301 75.0426 94.2926C74.1222 94.838 73.108 95.1108 72 95.1108Z" fill="white"/>
<path d="M93.4453 95.1108C91.7578 95.1108 90.309 94.5142 89.0987 93.321C87.9056 92.1108 87.309 90.6619 87.309 88.9744C87.309 87.3039 87.9056 85.8721 89.0987 84.6789C90.309 83.4858 91.7578 82.8892 93.4453 82.8892C95.0817 82.8892 96.5135 83.4858 97.7408 84.6789C98.9681 85.8721 99.5817 87.3039 99.5817 88.9744C99.5817 90.0994 99.2919 91.1306 98.7124 92.0681C98.1499 92.9886 97.4084 93.7301 96.4879 94.2926C95.5675 94.838 94.5533 95.1108 93.4453 95.1108Z" fill="white"/>
</g>
</g>
<defs>
<clipPath id="clip0_1066_462">
<rect width="144" height="144" fill="white"/>
</clipPath>
</defs>
</svg>
