<svg xmlns="http://www.w3.org/2000/svg" viewBox="0 0 236 46" fill="currentColor"><path d="M0 44.8V0h3.8v44.8zm13.8-39.7V0h4.5v5.1zm.3 39.7V12.8H18v32zM48.3 36c0 1.3-.2 2.5-.7 3.7-.5 1.1-1.2 2.1-2 3-.9.8-1.9 1.5-3 2-1.2.5-2.4.7-3.7.7h-2.6c-1.3 0-2.5-.2-3.7-.7-1.1-.5-2.1-1.2-3-2-.8-.9-1.5-1.9-2-3-.5-1.2-.7-2.4-.7-3.7V0h3.8v15.5c.9-1 1.9-1.9 3.2-2.4 1.2-.6 2.6-.9 4-.9h1c1.3 0 2.5.2 3.7.7 1.1.5 2.1 1.2 3 2 .8.9 1.5 1.9 2 3 .5 1.2.7 2.4.7 3.7zm-3.8-14.6c0-.8-.1-1.5-.4-2.2-.3-.7-.7-1.3-1.2-1.8s-1.1-.9-1.8-1.2c-.7-.3-1.4-.4-2.2-.4h-2.6c-.8 0-1.5.1-2.2.4-.7.3-1.3.7-1.8 1.2s-.9 1.1-1.2 1.8c-.3.7-.4 1.4-.4 2.2v14.9c0 .8.1 1.5.4 2.2.3.7.7 1.3 1.2 1.8s1.1.9 1.8 1.2c.7.3 1.4.4 2.2.4h2.6c.8 0 1.5-.1 2.2-.4.7-.3 1.3-.7 1.8-1.2s.7-1.1 1-1.8c.3-.7.4-1.4.4-2.2zm20.9-5.1c-.8 0-1.5.1-2.2.4-.7.3-1.3.7-1.8 1.2s-.9 1.1-1.2 1.8c-.3.7-.4 1.4-.4 2.2v22.8h-3.8V12.8h1.3l2.1 3.3c.9-1.2 2-2.1 3.3-2.8 1.3-.7 2.8-1.1 4.3-1.1h2.3v4.3zM95.8 36c0 1.3-.2 2.5-.7 3.7-.5 1.1-1.2 2.1-2 3-.9.8-1.9 1.5-3 2-1.2.5-2.4.7-3.7.7h-2.6c-1.3 0-2.5-.2-3.7-.7-1.1-.5-2.1-1.2-3-2-.8-.9-1.5-1.9-2-3-.5-1.2-.7-2.4-.7-3.7V21.6c0-1.3.2-2.5.7-3.7.5-1.1 1.2-2.1 2-3 .9-.9 1.9-1.5 3-2 1.2-.5 2.4-.7 3.7-.7h2.6c1.3 0 2.5.2 3.7.7 1.1.5 2.1 1.2 3 2 .9.9 1.5 1.9 2 3 .5 1.2.7 2.4.7 3.7v7.5H78.2v7.1c0 .8.1 1.5.4 2.2.3.7.7 1.3 1.2 1.8s1.1.9 1.8 1.2c.7.3 1.4.4 2.2.4h2.6c.8 0 1.5-.1 2.2-.4.7-.3 1.3-.7 1.8-1.2s.7-1.1 1-1.8c.3-.7.4-1.4.4-2.2v-2.1l3.8.6zm-3.8-14.7c0-.8-.1-1.5-.4-2.2-.3-.7-.7-1.3-1.2-1.8s-1.1-.9-1.8-1.2c-.7-.3-1.4-.4-2.2-.4h-2.6c-.8 0-1.5.1-2.2.4-.7.3-1.3.7-1.8 1.2s-.9 1.1-1.2 1.8c-.3.7-.4 1.4-.4 2.2v4.8H92zm33.5 15.4c0 1.3-.3 2.5-.8 3.6-.5 1.1-1.2 2-2.1 2.8-.9.8-1.9 1.4-3.1 1.8-1.2.4-2.4.6-3.7.6h-2.6c-1.3 0-2.5-.2-3.7-.7-1.2-.5-2.2-1.2-3.1-2-.9-.8-1.6-1.9-2.1-3-.5-1.2-.7-2.4-.7-3.7v-1.3l3.8-.6v2.1c0 .8.2 1.5.5 2.2.3.7.8 1.3 1.3 1.8s1.2.9 1.9 1.2c.7.3 1.4.4 2.2.4h2.6c.8 0 1.5-.1 2.2-.3.7-.2 1.3-.6 1.9-1 .6-.4 1-1 1.3-1.6.3-.6.5-1.3.5-2.1 0-1.1-.3-2.1-.8-2.8-.5-.7-1.2-1.3-2-1.8-.8-.5-1.7-.9-2.8-1.2-1-.3-2.1-.7-3.2-1-1.1-.3-2.2-.7-3.3-1.1-1-.4-2-.9-2.8-1.6-.8-.7-1.5-1.5-2-2.6-.5-1-.7-2.3-.7-3.8 0-1.3.2-2.5.7-3.5.5-1.1 1.2-2 2.1-2.8.9-.8 1.9-1.4 3-1.8 1.1-.4 2.4-.7 3.7-.7h2.2c1.3 0 2.5.2 3.7.7 1.1.5 2.1 1.2 3 2 .9.9 1.5 1.9 2 3 .5 1.2.7 2.4.7 3.7v.1l-3.8.6v-1c0-.8-.1-1.5-.4-2.2-.3-.7-.7-1.3-1.2-1.8s-1.1-.9-1.8-1.2c-.7-.3-1.4-.4-2.2-.4h-2.2c-.8 0-1.5.1-2.2.3-.7.2-1.3.6-1.8 1-.5.4-.9 1-1.2 1.5-.3.6-.4 1.3-.4 2.1 0 1.1.2 2 .7 2.7.5.7 1.2 1.3 2 1.8.8.5 1.8.9 2.8 1.2 1.1.3 2.2.7 3.2 1 1.1.3 2.2.7 3.2 1.2 1.1.4 2 1 2.8 1.7.8.7 1.5 1.6 2 2.6.5 1 .7 2.3.7 3.8zm28.7-.7c0 1.3-.2 2.5-.7 3.7-.5 1.1-1.2 2.1-2 3-.9.8-1.9 1.5-3 2-1.2.5-2.4.7-3.7.7h-2.6c-1.3 0-2.5-.2-3.7-.7-1.1-.5-2.1-1.2-3-2-.8-.9-1.5-1.9-2-3-.5-1.2-.7-2.4-.7-3.7V21.6c0-1.3.2-2.5.7-3.7.5-1.1 1.2-2.1 2-3 .9-.9 1.9-1.5 3-2 1.2-.5 2.4-.7 3.7-.7h2.6c1.3 0 2.5.2 3.7.7 1.1.5 2.1 1.2 3 2 .9.9 1.5 1.9 2 3 .5 1.2.7 2.4.7 3.7v1.3l-3.8.6v-2.1c0-.8-.1-1.5-.4-2.2-.3-.7-.7-1.3-1.2-1.8s-1.1-.9-1.8-1.2c-.7-.3-1.4-.4-2.2-.4h-2.6c-.8 0-1.5.1-2.2.4-.7.3-1.3.7-1.8 1.2s-.9 1.1-1.2 1.8c-.3.7-.4 1.4-.4 2.2v14.9c0 .8.1 1.5.4 2.2.3.7.7 1.3 1.2 1.8s1.1.9 1.8 1.2c.7.3 1.4.4 2.2.4h2.6c.8 0 1.5-.1 2.2-.4.7-.3 1.3-.7 1.8-1.2s.7-1.1 1-1.8c.3-.7.4-1.4.4-2.2v-2.1l3.8.6zm29.1 0c0 1.3-.2 2.5-.7 3.7-.5 1.1-1.2 2.1-2 3-.9.8-1.9 1.5-3 2-1.2.5-2.4.7-3.7.7h-2.6c-1.3 0-2.5-.2-3.7-.7-1.1-.5-2.1-1.2-3-2-.8-.9-1.5-1.9-2-3-.5-1.2-.7-2.4-.7-3.7V21.6c0-1.3.2-2.5.7-3.7.5-1.1 1.2-2.1 2-3 .9-.9 1.9-1.5 3-2 1.2-.5 2.4-.7 3.7-.7h2.6c1.3 0 2.5.2 3.7.7 1.1.5 2.1 1.2 3 2 .9.9 1.5 1.9 2 3 .5 1.2.7 2.4.7 3.7zm-3.8-14.6c0-.8-.1-1.5-.4-2.2-.3-.7-.7-1.3-1.2-1.8s-1.1-.9-1.8-1.2c-.7-.3-1.4-.4-2.2-.4h-2.6c-.8 0-1.5.1-2.2.4-.7.3-1.3.7-1.8 1.2s-.9 1.1-1.2 1.8c-.3.7-.4 1.4-.4 2.2v14.9c0 .8.1 1.5.4 2.2.3.7.7 1.3 1.2 1.8s1.1.9 1.8 1.2c.7.3 1.4.4 2.2.4h2.6c.8 0 1.5-.1 2.2-.4.7-.3 1.3-.7 1.8-1.2s.7-1.1 1-1.8c.3-.7.4-1.4.4-2.2zm29.1 0c0 1.3-.2 2.5-.7 3.7-.5 1.1-1.2 2.1-2 3-.9.8-1.9 1.5-3 2-1.2.5-2.4.7-3.7.7h-2.6c-1.3 0-2.5-.2-3.7-.7-1.1-.5-2.1-1.2-3-2-.8-.9-1.5-1.9-2-3-.5-1.2-.7-2.4-.7-3.7V21.6c0-1.3.2-2.5.7-3.7.5-1.1 1.2-2.1 2-3 .9-.9 1.9-1.5 3-2 1.2-.5 2.4-.7 3.7-.7h2.6c1.3 0 2.5.2 3.7.7 1.1.5 2.1 1.2 3 2 .9.9 1.5 1.9 2 3 .5 1.2.7 2.4.7 3.7zm-3.8-14.6c0-.8-.1-1.5-.4-2.2-.3-.7-.7-1.3-1.2-1.8s-1.1-.9-1.8-1.2c-.7-.3-1.4-.4-2.2-.4h-2.6c-.8 0-1.5.1-2.2.4-.7.3-1.3.7-1.8 1.2s-.9 1.1-1.2 1.8c-.3.7-.4 1.4-.4 2.2v14.9c0 .8.1 1.5.4 2.2.3.7.7 1.3 1.2 1.8s1.1.9 1.8 1.2c.7.3 1.4.4 2.2.4h2.6c.8 0 1.5-.1 2.2-.4.7-.3 1.3-.7 1.8-1.2s.7-1.1 1-1.8c.3-.7.4-1.4.4-2.2zm23.2 23.4c-1.2 0-2.3-.2-3.3-.7-1-.4-1.9-1-2.7-1.8-.7-.8-1.3-1.7-1.8-2.7-.4-1-.7-2.1-.7-3.3V16.5h-5.7v-3.7h5.7V5.1l3.9-.6v8.3h8.1v3.7h-8.1v20.1c0 .6.1 1.2.3 1.8.3.5.6 1 1 1.4.4.4.9.8 1.5 1 .6.2 1.2.3 1.8.3h3.5v3.7z"/></svg>
