<svg xmlns="http://www.w3.org/2000/svg" width="144" height="144" fill="none" viewBox="0 0 144 144"><g clip-path="url(#a)"><mask id="b" width="144" height="144" x="0" y="0" maskUnits="userSpaceOnUse" style="mask-type:alpha"><path fill="#d9d9d9" d="M0 0h144v144H0z"/></mask><g mask="url(#b)"><path fill="#fff" stroke="#000" stroke-width="10" d="M120 79c4.637 0 8.731 1.7091 12.011 4.9893l.302.3105C135.396 87.5265 137 91.5084 137 96v1.8604c1.112.497 2.133 1.2023 3.035 2.1044C141.962 101.892 143 104.359 143 107.1v19.8c0 2.741-1.038 5.208-2.965 7.135S135.641 137 132.9 137h-25.8c-2.741 0-5.208-1.038-7.1352-2.965-1.9268-1.927-2.9647-4.394-2.9648-7.135v-19.8l.0117-.511c.1212-2.537 1.1467-4.818 2.9531-6.6242.9022-.9021 1.9232-1.6074 3.0352-2.1044V96c0-4.6366 1.709-8.7305 4.989-12.0107l.311-.3028C111.526 80.6042 115.508 79 120 79Zm0 16c-.331 0-.488.0528-.616.1494l-.123.1113c-.166.1661-.261.2985-.261.7393v1h2v-1c0-.3307-.053-.4882-.149-.6162l-.112-.1231c-.166-.166-.298-.2607-.739-.2607Z"/></g></g><defs><clipPath id="a"><path fill="#fff" d="M0 0h144v144H0z"/></clipPath></defs></svg>