<svg xmlns="http://www.w3.org/2000/svg" width="144" height="144" fill="none" viewBox="0 0 144 144"><path fill="#fff" fill-rule="evenodd" d="M99.8506 20H114l.31.0039C120.794 20.1681 126 25.4761 126 32c0 .1639-.004.327-.011.4893.007.1694.011.3396.011.5107v85l-.004.336c-.175 6.913-5.747 12.485-12.66 12.66L113 131H31l-.3359-.004c-6.9129-.175-12.4849-5.747-12.6602-12.66L18 118V33c0-.1711.0042-.3413.0107-.5107A12 12 0 0 1 18 32c0-6.5239 5.2061-11.8319 11.6904-11.9961L30 20h14.1494L54.8057 9h34.3886zM118 43.3125a11.96 11.96 0 0 1-3.69.6836L114 44H30l-.3096-.0039c-1.2917-.0327-2.5312-.2737-3.6904-.6836V118c0 2.761 2.2386 5 5 5h82c2.761 0 5-2.239 5-5zM31 28c-2.5817 0-4.707 1.9565-4.9727 4.4678C26.259 34.4565 27.9491 36 30 36h84c2.051 0 3.74-1.5436 3.972-3.5322C117.706 29.9566 115.582 28 113 28h-8.968l-3.905 3.7832L96.4619 28H47.5381l-3.6651 3.7832L39.9678 28zm24.2881-8h33.4238l-2.9062-3H58.1943z" clip-rule="evenodd"/></svg>