<svg xmlns="http://www.w3.org/2000/svg" width="144" height="144" fill="none" viewBox="0 0 144 144"><g clip-path="url(#a)"><mask id="b" width="144" height="144" x="0" y="0" maskUnits="userSpaceOnUse" style="mask-type:alpha"><path fill="#d9d9d9" d="M0 0h144v144H0z"/></mask><g fill="#ffea00" mask="url(#b)"><path d="M48.6502 50.8618v6.0201H17.02v43.7451h84.092V56.8819H69.4822v-6.0201h37.6498v55.7852H11V50.8618z"/><path d="M120.352 60.7847v55.5383H24.4676v-6.02h89.8644V60.7847z"/><path d="M133.57 70.461V126H37.686v-6.02h89.864V70.461zm-91.344 3.466v4.515H23.401v-4.515zm51.574 0v4.515H75.311v-4.515z"/><path d="M86.817 66.937v18.489h-4.515V66.937zM58.35 17c-1.098 0-2.15.461-2.926 1.282s-1.212 1.934-1.212 3.095v61.981c0 1.161.436 2.274 1.212 3.095s1.829 1.282 2.927 1.282 2.15-.461 2.927-1.282 1.212-1.934 1.212-3.095V21.377c0-1.161-.436-2.274-1.212-3.095S59.448 17 58.35 17M40.592 43.038h-14.71v10.834h14.71zm51.664 0h-14.71v10.834h14.71zM62.489 94.132c0 2.286-1.853 4.139-4.139 4.139s-4.139-1.853-4.139-4.139 1.853-4.139 4.139-4.139 4.139 1.853 4.139 4.139"/></g></g><defs><clipPath id="a"><path fill="#fff" d="M0 0h144v144H0z"/></clipPath></defs></svg>