<svg xmlns="http://www.w3.org/2000/svg" width="1440" height="1440" fill="none" viewBox="0 0 1440 1440"><path fill="#fff" d="m1327.18 574.071-196.74 189.167c-18.09-31.077-45.12-56.75-114.03-56.75-76.379 1.288-89.178 2.702-120.255 41.887-31.078 39.185-174.304 39.185-174.304 39.185H189.482l.016-.019c-.455.008-.91.019-1.367.019-41.043 0-74.316-33.273-74.316-74.316s33.273-74.315 74.316-74.315 74.315 33.272 74.315 74.315l1.539 1.56c7.836 7.828 17.934 15.98 36.295 16.006h421.571l174.304-179.709c42.451-39.157 70.052-52.322 127.015-58.101h304.01zm0 286.453h-.01c0 .449.01.9.01 1.351 0 47.013-38.11 85.125-85.12 85.125-57.82 0-95.94-38.112-95.94-85.125 0-.451.02-.902.02-1.351h-.02v-87.828l181.06-170.25z"/></svg>