<svg xmlns="http://www.w3.org/2000/svg" width="144" height="144" fill="none" viewBox="0 0 144 144"><path fill="#fff" d="M96.6006 16.6455h-17.75L78.4961 17H58.1943l-2.9062 3h20.208l-4.6455 4.6455V28H47.5381l-3.6651 3.7832L39.9678 28H31c-2.5817 0-4.707 1.9565-4.9727 4.4678C26.259 34.4565 27.9491 36 30 36h21.4229l-4.4766 4.4766V44H30l-.3096-.0039c-1.2917-.0327-2.5312-.2737-3.6904-.6836V118c0 2.761 2.2386 5 5 5h82c2.761 0 5-2.239 5-5V58.001h8V118l-.004.336c-.175 6.913-5.747 12.485-12.66 12.66L113 131H31l-.3359-.004c-6.9129-.175-12.4849-5.747-12.6602-12.66L18 118V33c0-.1711.0042-.3413.0107-.5107A12 12 0 0 1 18 32c0-6.5239 5.2061-11.8319 11.6904-11.9961L30 20h14.1494L54.8057 9h34.3886zM126 50.001h-8V50h8zm-17.351-29.3809h9.165l.003.001h-9.168z"/><path fill="#fff" d="M78.318 56.088v-5.2L93.712 31.83v-.225H78.85v-6.96h25.364v5.67L89.761 48.903v.225h14.985v6.96zm-23.771 7.97v-3.9l11.546-14.294v-.169H54.946v-5.22h19.023v4.253l-10.84 13.941v.169h11.239v5.22zM108.011 50v-6.239l18.473-22.87v-.27H108.65v-8.352h30.436v6.805l-17.343 22.305v.27h17.981V50z"/></svg>