<svg xmlns="http://www.w3.org/2000/svg" width="144" height="144" fill="none" viewBox="0 0 144 144"><g clip-path="url(#a)"><path fill="#fff" d="M67.5 138v-11.25q-20.55-2.1-34.2-15.75T17.55 76.8001H6.3v-9h11.25q2.1-20.55 15.75-34.2t34.2-15.75v-11.25h9v11.25q20.55 2.1 34.2 15.75t15.75 34.2h11.25v9h-11.25q-2.1 20.55-15.75 34.1999-13.65 13.65-34.2 15.75V138zm4.5-20.1q18.75 0 32.175-13.425Q117.6 91.0501 117.6 72.3001t-13.425-32.175T72 26.7001t-32.175 13.425T26.4 72.3001t13.425 32.1749T72 117.9"/></g><defs><clipPath id="a"><path fill="#fff" d="M0 0h144v144H0z"/></clipPath></defs></svg>