<svg xmlns="http://www.w3.org/2000/svg" width="1440" height="1440" fill="none" viewBox="0 0 1440 1440"><path fill="#fff" d="m113.816 574.071 196.743 189.167c18.095-31.077 45.12-56.75 114.03-56.75 76.38 1.288 89.179 2.702 120.256 41.887 31.078 39.185 174.304 39.185 174.304 39.185h532.371l-.02-.019c.46.008.91.019 1.37.019 41.04 0 74.31-33.273 74.31-74.316s-33.27-74.315-74.31-74.315-74.32 33.272-74.32 74.315l-1.53 1.56c-7.84 7.828-17.94 15.98-36.3 16.006H719.149L544.845 551.101c-42.451-39.157-70.052-52.322-127.012-58.101H113.816zm-.001 286.453h.019c-.007.449-.019.9-.019 1.351 0 47.013 38.112 85.125 85.125 85.125 57.823 0 95.935-38.112 95.935-85.125 0-.451-.011-.902-.018-1.351h.018v-87.828l-181.06-170.25z"/></svg>