<svg width="144" height="144" viewBox="0 0 144 144" fill="none" xmlns="http://www.w3.org/2000/svg">
<g clip-path="url(#clip0_1066_358)">
<mask id="mask0_1066_358" style="mask-type:alpha" maskUnits="userSpaceOnUse" x="0" y="0" width="144" height="144">
<rect width="144" height="144" fill="#D9D9D9"/>
</mask>
<g mask="url(#mask0_1066_358)">
<path d="M72 97.05L43.05 68.1L49.5 61.65L67.5 79.65V24H76.5V79.65L94.5 61.65L100.95 68.1L72 97.05ZM33 120C30.6 120 28.5 119.1 26.7 117.3C24.9 115.5 24 113.4 24 111V89.55H33V111H111V89.55H120V111C120 113.4 119.1 115.5 117.3 117.3C115.5 119.1 113.4 120 111 120H33Z" fill="white"/>
</g>
</g>
<defs>
<clipPath id="clip0_1066_358">
<rect width="144" height="144" fill="white"/>
</clipPath>
</defs>
</svg>
