<svg xmlns="http://www.w3.org/2000/svg" width="144" height="144" fill="none" viewBox="0 0 144 144"><g clip-path="url(#a)"><path fill="#fff" d="M19 13.2998 131.499 125.649l-5.999 6.001-3.906-3.9c-2.292 2.021-5.298 3.25-8.594 3.25H31l-.3359-.004C23.6396 130.818 18 125.067 18 118V33c0-.1711.0042-.3413.0107-.5107A12 12 0 0 1 18 32c0-2.2125.6011-4.2839 1.6455-6.0635L13 19.2998zM26 118c0 2.761 2.2386 5 5 5h82c1.084 0 2.085-.347 2.904-.933L37.7334 44H30l-.3096-.0039c-1.2917-.0327-2.5312-.2737-3.6904-.6836zM90.373 10.2168 99.8506 20H114c6.627 0 12 5.3726 12 12 0 .1629-.004.325-.011.4863.007.1704.011.3417.011.5137v74.565l-8-7.9888V43.3135A11.98 11.98 0 0 1 114 44H62.3496l-8.0107-8H114c2.051 0 3.74-1.5436 3.972-3.5322C117.706 29.9566 115.582 28 113 28h-8.968l-3.905 3.7832L96.4619 28H47.5381l-.5957.6143L38.3174 20h5.832l9.4776-9.7832L54.8057 9h34.3886zm-64.3457 22.251c.2207 1.8941 1.7644 3.383 3.6827 3.5205l-3.6651-3.6612c-.0063.0468-.0126.0936-.0176.1407M55.2881 20h33.4238l-2.9062-3H58.1943z"/></g><defs><clipPath id="a"><path fill="#fff" d="M0 0h144v144H0z"/></clipPath></defs></svg>