<svg xmlns="http://www.w3.org/2000/svg" width="144" height="144" fill="none" viewBox="0 0 144 144"><path fill="#fff" d="M99.8506 22H114l.31.0039C120.794 22.1681 126 27.4761 126 34c0 .1639-.004.327-.011.4893.007.1694.011.3396.011.5107v46.3281c-2.544-.7706-5.226-1.2236-8-1.3115V45.3125a11.96 11.96 0 0 1-3.69.6836L114 46H30l-.3096-.0039c-1.2917-.0327-2.5312-.2737-3.6904-.6836V120c0 2.761 2.2386 5 5 5h58.335c1.5085 2.975 3.4831 5.673 5.8271 8H31l-.3359-.004c-6.9129-.175-12.4849-5.747-12.6602-12.66L18 120V35c0-.1711.0042-.3413.0107-.5107A12 12 0 0 1 18 34c0-6.5239 5.2061-11.8319 11.6904-11.9961L30 22h14.1494l10.6563-11h34.3886zM31 30c-2.5817 0-4.707 1.9565-4.9727 4.4678C26.259 36.4565 27.9491 38 30 38h84c2.051 0 3.74-1.5436 3.972-3.5322C117.706 31.9566 115.582 30 113 30h-8.968l-3.905 3.7832L96.4619 30H47.5381l-3.6651 3.7832L39.9678 30zm24.2881-8h33.4238l-2.9062-3H58.1943z"/><path fill="#fff" d="m98.1 122.506 6.3 6.253 12.6-12.357 12.6 12.357 6.3-6.253L123.45 110l12.45-12.5062-6.3-6.2531L117 103.747l-12.6-12.5063-6.3 6.2531L110.7 110z"/></svg>