<svg xmlns="http://www.w3.org/2000/svg" xml:space="preserve" width="144" height="144" style="fill-rule:evenodd;clip-rule:evenodd;stroke-linejoin:round;stroke-miterlimit:2" viewBox="0 0 144 144"><path d="m79.699 53.875-2.849 2.808.02.021.02.019zm0-8.642-2.809-2.848-.02.02zm8.642 0-2.789 2.868zm.971 7.389-3.402-2.103-.011.017zm-2.224 2.225 2.039 3.441.023-.014.024-.014zm-3.043 4.818v-8c-.628 0-1.07-.177-1.538-.638l-5.617 5.696c1.953 1.926 4.408 2.942 7.155 2.942m-7.195-2.982 5.697-5.616c-.461-.468-.638-.91-.638-1.539h-8c0 2.747 1.016 5.203 2.941 7.155m-2.941-7.155h8c0-.597.166-1.015.618-1.467l-2.828-2.828-2.829-2.828c-1.935 1.934-2.961 4.38-2.961 7.123m5.79-4.295 2.808 2.848c.468-.461.91-.638 1.538-.638v-8c-2.747 0-5.202 1.016-7.155 2.942zm4.346-5.79v8c.543 0 .989.154 1.507.658l2.789-2.868 2.788-2.868c-1.936-1.882-4.354-2.922-7.084-2.922m4.296 5.79-2.789 2.868c.474.461.63.867.63 1.427h8c0-2.78-1.073-5.238-3.053-7.163zm5.841 4.295h-8c0 .399-.092.699-.272.991l3.402 2.103 3.403 2.103a9.77 9.77 0 0 0 1.467-5.197m-1.457 5.18-6.826-4.172a2.6 2.6 0 0 1-.897.898l4.172 6.826a10.6 10.6 0 0 0 3.551-3.552m-3.598 3.58-4.078-6.883a1.86 1.86 0 0 1-1.004.26v8a9.86 9.86 0 0 0 5.082-1.377m12.017-4.413-2.849 2.808.02.021.021.019zm0-8.642-2.808-2.848-.021.02zm8.642 0-2.788 2.868zm.971 7.389-3.402-2.103-.005.009-.006.008zm-2.224 2.225 2.039 3.441.024-.014.023-.014zm-3.043 4.818v-8c-.628 0-1.07-.177-1.538-.638l-5.616 5.696c1.952 1.926 4.408 2.942 7.154 2.942m-4.346-5.79 2.848-2.808c-.461-.468-.638-.91-.638-1.539h-8c0 2.747 1.016 5.203 2.941 7.155zm-5.79-4.347h8c0-.597.167-1.015.618-1.467l-2.828-2.828-2.829-2.828c-1.934 1.934-2.961 4.38-2.961 7.123m2.982-7.143 5.616 5.696c.468-.461.91-.638 1.538-.638v-8c-2.746 0-5.202 1.016-7.154 2.942m7.154-2.942v8c.543 0 .989.154 1.508.658l5.576-5.736c-1.936-1.882-4.354-2.922-7.084-2.922m7.084 2.922-5.576 5.736c.474.461.629.867.629 1.427h8c0-2.78-1.072-5.238-3.053-7.163m3.053 7.163h-8c0 .399-.092.699-.272.991l3.402 2.103 3.403 2.103a9.77 9.77 0 0 0 1.467-5.197m-4.87 3.094-3.413-2.086a2.6 2.6 0 0 1-.897.898l4.172 6.826a10.6 10.6 0 0 0 3.552-3.552zm-.185 5.666-4.078-6.883a1.86 1.86 0 0 1-1.004.26v8a9.86 9.86 0 0 0 5.082-1.377m12.017-4.413-2.848 2.808.02.021.02.019zm0-8.642-2.808-2.848-.02.02zm8.642 0-2.788 2.868zm.972 7.389-3.403-2.103-.01.017zm-2.225 2.225 2.04 3.441.046-.028zm-3.042 4.818v-8c-.628 0-1.071-.177-1.539-.638l-5.616 5.696c1.953 1.926 4.408 2.942 7.155 2.942m-4.347-5.79 2.849-2.808c-.462-.468-.639-.91-.639-1.539h-8c0 2.747 1.017 5.203 2.942 7.155zm-5.79-4.347h8c0-.597.167-1.015.619-1.467l-2.829-2.828-2.828-2.828c-1.935 1.934-2.962 4.38-2.962 7.123m2.982-7.143 5.616 5.696c.468-.461.911-.638 1.539-.638v-8c-2.747 0-5.202 1.016-7.155 2.942m7.155-2.942v8c.543 0 .988.154 1.507.658l5.576-5.736c-1.935-1.882-4.354-2.922-7.083-2.922m7.083 2.922-5.576 5.736c.474.461.629.867.629 1.427h8c0-2.78-1.072-5.238-3.053-7.163m3.053 7.163h-8c0 .399-.091.699-.272.991l3.403 2.103 3.402 2.103a9.77 9.77 0 0 0 1.467-5.197m-1.456 5.18-6.826-4.172a2.6 2.6 0 0 1-.897.898l2.085 3.413 2.086 3.413a10.6 10.6 0 0 0 3.552-3.552m-5.638.139-2.039-3.442c-.28.167-.586.26-1.003.26v8a9.87 9.87 0 0 0 5.082-1.377z" style="fill:#fff;fill-rule:nonzero"/><path d="M84.045 55.665q-2.53 0-4.346-1.79-1.79-1.815-1.79-4.347 0-2.505 1.79-4.295 1.815-1.79 4.346-1.79 2.455 0 4.296 1.79 1.84 1.79 1.841 4.295 0 1.688-.87 3.094a6.6 6.6 0 0 1-2.224 2.225 5.87 5.87 0 0 1-3.043.818m21.445 0q-2.53 0-4.346-1.79-1.79-1.815-1.79-4.347 0-2.505 1.79-4.295 1.815-1.79 4.346-1.79 2.456 0 4.296 1.79t1.841 4.295q0 1.688-.87 3.094a6.6 6.6 0 0 1-2.224 2.225 5.86 5.86 0 0 1-3.043.818m21.446 0q-2.532 0-4.347-1.79-1.79-1.815-1.79-4.347 0-2.505 1.79-4.295 1.815-1.79 4.347-1.79 2.454 0 4.295 1.79t1.841 4.295q0 1.688-.869 3.094a6.6 6.6 0 0 1-2.225 2.225 5.86 5.86 0 0 1-3.042.818" style="fill-rule:nonzero"/></svg>