<svg xmlns="http://www.w3.org/2000/svg" width="144" height="144" fill="none" viewBox="0 0 144 144"><g clip-path="url(#a)"><path fill="#fff" d="M67.725 136.8v-11.025c-13.65-1.4-24.9625-6.588-33.9375-15.563S19.625 89.9249 18.225 76.2749H7.2v-8.625h11.025q2.1-20.4749 15.5625-33.8999T67.725 18.225V7.2h8.625v11.025q20.475 2.1 33.9 15.525t15.525 33.8999H136.8v8.625h-11.025c-1.4 13.65-6.575 24.9621-15.525 33.9371S90 124.375 76.35 125.775V136.8zm4.3545-19.5q18.6781 0 31.9495-13.35c8.848-8.9001 13.271-19.5765 13.271-32.0296 0-12.452-4.423-23.102-13.271-31.95Q90.7576 26.6999 72.0795 26.7 53.4 26.7 40.05 39.9704q-13.35 13.272-13.35 31.95Q26.7 90.6 40.05 103.95t32.0295 13.35M72 94.05q-9.336 0-15.693-6.3571T49.95 72q0-9.336 6.357-15.693T72 49.95t15.693 6.357T94.05 72t-6.357 15.6929Q81.336 94.0499 72 94.05"/></g><defs><clipPath id="a"><path fill="#fff" d="M0 0h144v144H0z"/></clipPath></defs></svg>