<svg xmlns="http://www.w3.org/2000/svg" width="144" height="144" fill="none" viewBox="0 0 144 144"><mask id="a" width="23" height="26" x="95" y="23" fill="#000" maskUnits="userSpaceOnUse"><path fill="#fff" d="M95 23h23v26H95z"/><path d="M97.3754 47v-3.608l10.6816-13.2244v-.1562H97.7447v-4.8296h17.5993v3.9347l-10.028 12.8977v.1563h10.397V47z"/></mask><path fill="#fff" d="M97.3754 47v-3.608l10.6816-13.2244v-.1562H97.7447v-4.8296h17.5993v3.9347l-10.028 12.8977v.1563h10.397V47z"/><path fill="#000" d="M97.3754 47h-2v2h2zm0-3.608-1.5559-1.2567-.4441.5499v.7068zm10.6816-13.2244 1.556 1.2567.444-.5498v-.7069zm0-.1562h2v-2h-2zm-10.3123 0h-2v2h2zm0-4.8296v-2h-2v2zm17.5993 0h2v-2h-2zm0 3.9347 1.579 1.2276.421-.5416v-.686zm-10.028 12.8977-1.579-1.2276-.421.5416v.686zm0 .1563h-2v2h2zm10.397 0h2v-2h-2zm0 4.8295v2h2v-2zm-18.3376 0h2v-3.608h-4V47zm0-3.608 1.5558 1.2568 10.6818-13.2245-1.556-1.2567-1.556-1.2567-10.6815 13.2244zm10.6816-13.2244h2v-.1562h-4v.1562zm0-.1562v-2H97.7447v4h10.3123zm-10.3123 0h2v-4.8296h-4v4.8296zm0-4.8296v2h17.5993v-4H97.7447zm17.5993 0h-2v3.9347h4v-3.9347zm0 3.9347-1.579-1.2277-10.028 12.8978 1.579 1.2276 1.579 1.2276 10.028-12.8977zm-10.028 12.8977h-2v.1563h4v-.1563zm0 .1563v2h10.397v-4h-10.397zm10.397 0h-2V47h4v-4.8295zm0 4.8295v-2H97.3754v4h18.3376z" mask="url(#a)"/><mask id="b" width="18" height="21" x="79" y="33" fill="#000" maskUnits="userSpaceOnUse"><path fill="#fff" d="M79 33h18v21H79z"/><path d="M81.1565 52v-2.706l8.0114-9.9183v-.1172h-7.7344v-3.6221h13.1996v2.951l-7.5213 9.6733v.1171h7.7983V52z"/></mask><path fill="#fff" d="M81.1565 52v-2.706l8.0114-9.9183v-.1172h-7.7344v-3.6221h13.1996v2.951l-7.5213 9.6733v.1171h7.7983V52z"/><path fill="#000" d="M81.1565 52h-2v2h2zm0-2.706-1.5558-1.2567-.4442.5499v.7068zm8.0114-9.9183 1.5558 1.2567.4442-.5498v-.7069zm0-.1172h2v-2h-2zm-7.7344 0h-2v2h2zm0-3.6221v-2h-2v2zm13.1996 0h2v-2h-2zm0 2.951 1.5789 1.2276.4211-.5416v-.686zm-7.5213 9.6733-1.5789-1.2277-.4211.5416v.6861zm0 .1171h-2v2h2zm7.7983 0h2v-2h-2zm0 3.6222v2h2v-2zm-13.7536 0h2v-2.706h-4V52zm0-2.706 1.5559 1.2567 8.0113-9.9183-1.5558-1.2567-1.5559-1.2567-8.0113 9.9183zm8.0114-9.9183h2v-.1172h-4v.1172zm0-.1172v-2h-7.7344v4h7.7344zm-7.7344 0h2v-3.6221h-4v3.6221zm0-3.6221v2h13.1996v-4H81.4335zm13.1996 0h-2v2.951h4v-2.951zm0 2.951-1.5789-1.2277-7.5213 9.6733 1.5789 1.2277 1.5789 1.2276 7.5213-9.6733zm-7.5213 9.6733h-2v.1171h4v-.1171zm0 .1171v2h7.7983v-4h-7.7983zm7.7983 0h-2V52h4v-3.6222zm0 3.6222v-2H81.1565v4h13.7536z" mask="url(#b)"/><mask id="c" width="27" height="31" x="116" y="13" fill="#000" maskUnits="userSpaceOnUse"><path fill="#fff" d="M116 13h27v31h-27z"/><path d="M118.05 42v-4.3295l12.819-15.8694v-.1875h-12.375v-5.7954h21.119v4.7216L127.579 36.017v.1875h12.477V42z"/></mask><path fill="#fff" d="M118.05 42v-4.3295l12.819-15.8694v-.1875h-12.375v-5.7954h21.119v4.7216L127.579 36.017v.1875h12.477V42z"/><path fill="#000" d="M118.05 42h-2v2h2zm0-4.3295-1.555-1.2568-.445.5499v.7069zm12.819-15.8694 1.555 1.2567.445-.5498v-.7069zm0-.1875h2v-2h-2zm-12.375 0h-2v2h2zm0-5.7954v-2h-2v2zm21.119 0h2v-2h-2zm0 4.7216 1.579 1.2276.421-.5416v-.686zM127.579 36.017 126 34.7894l-.421.5416v.686zm0 .1875h-2v2h2zm12.477 0h2v-2h-2zm0 5.7955v2h2v-2zm-22.006 0h2v-4.3295h-4V42zm0-4.3295 1.556 1.2567 12.818-15.8694-1.555-1.2567-1.556-1.2567-12.818 15.8693zm12.819-15.8694h2v-.1875h-4v.1875zm0-.1875v-2h-12.375v4h12.375zm-12.375 0h2v-5.7954h-4v5.7954zm0-5.7954v2h21.119v-4h-21.119zm21.119 0h-2v4.7216h4v-4.7216zm0 4.7216-1.579-1.2277L126 34.7894l1.579 1.2276 1.579 1.2277 12.034-15.4773zM127.579 36.017h-2v.1875h4v-.1875zm0 .1875v2h12.477v-4h-12.477zm12.477 0h-2V42h4v-5.7955zm0 5.7955v-2H118.05v4h22.006z" mask="url(#c)"/></svg>