<svg xmlns="http://www.w3.org/2000/svg" width="144" height="144" fill="none" viewBox="0 0 144 144"><circle cx="71.5" cy="72.5" r="62.5" fill="red"/><circle cx="71.5" cy="72.5" r="49.5" fill="#fff"/><path fill="#000" d="M67.6562 81q0-4.375.8438-6.9375.875-2.5938 3.0938-4.9375 2.3436-2.5937 3.125-4.25.7812-1.6563.7812-3.3438 0-5.2187-3.375-5.2187-1.5 0-2.5 1.4375t-1.0625 3.875h-8.8437q.0624-6.0626 3.375-9.4062 3.3437-3.3438 9.0312-3.3438 5.8125 0 9.0312 3.25 3.2188 3.2187 3.2188 9.0312 0 4.8126-3.9688 9.4376l-2.5937 2.9374Q76.5313 75.0625 76 76.7188q-.5313 1.625-.5938 4.2812zm-.8124 9.5625q0-2.125 1.3437-3.4687 1.375-1.3438 3.4687-1.3438 2.1564 0 3.5 1.375Q76.5 88.4688 76.5 90.5625q0 2.0625-1.3125 3.4375t-3.5313 1.375q-2.1875 0-3.5-1.375t-1.3124-3.4375"/></svg>